<svg width="45" height="45" viewBox="0 0 45 45" fill="none" xmlns="http://www.w3.org/2000/svg">
<path d="M43.5623 40.9879L32.8523 29.8489C35.606 26.5753 37.1148 22.4566 37.1148 18.1687C37.1148 8.15065 28.9642 0 18.9461 0C8.92799 0 0.777344 8.15065 0.777344 18.1687C0.777344 28.1868 8.92799 36.3375 18.9461 36.3375C22.707 36.3375 26.291 35.2031 29.3552 33.0497L40.1466 44.2733C40.5977 44.7417 41.2043 45 41.8545 45C42.4698 45 43.0536 44.7654 43.4968 44.3388C44.4384 43.4328 44.4684 41.9303 43.5623 40.9879ZM18.9461 4.73967C26.351 4.73967 32.3751 10.7638 32.3751 18.1687C32.3751 25.5737 26.351 31.5978 18.9461 31.5978C11.5411 31.5978 5.51701 25.5737 5.51701 18.1687C5.51701 10.7638 11.5411 4.73967 18.9461 4.73967Z" fill="black"/>
</svg>
